<svg xmlns="http://www.w3.org/2000/svg" width="24" height="24" fill="none" viewBox="0 0 24 24"><path fill="#efe7d2" d="M12 0C5.37889 0 0 5.37889 0 12C0 14.1282 0.583663 16.1144 1.55707 17.8482L0.0193614 23.3376C-0.00520483 23.4255 -0.00631482 23.5182 0.0161421 23.6066C0.0385991 23.695 0.0838384 23.776 0.147349 23.8415C0.21086 23.907 0.290424 23.9546 0.378107 23.9798C0.465791 24.0049 0.55853 24.0066 0.647079 23.9847L6.37092 22.5662C8.05285 23.4641 9.96135 24 12 24C18.6211 24 24 18.6211 24 12C24 5.37889 18.6211 0 12 0ZM12 1.04348C18.0571 1.04348 22.9565 5.94285 22.9565 12C22.9565 18.0571 18.0571 22.9565 12 22.9565C10.0581 22.9565 8.23937 22.4502 6.65829 21.5656C6.54265 21.5009 6.40677 21.4827 6.27819 21.5146L1.26562 22.7568L2.60971 17.9613C2.62895 17.8935 2.63426 17.8225 2.62533 17.7527C2.61639 17.6828 2.59341 17.6154 2.55774 17.5547C1.59688 15.9254 1.04348 14.0296 1.04348 12C1.04348 5.94285 5.94285 1.04348 12 1.04348ZM7.63961 5.73913C7.30515 5.73913 6.8275 5.86356 6.43512 6.28635C6.19944 6.54029 5.21739 7.49714 5.21739 9.17935C5.21739 10.9332 6.43377 12.4465 6.58084 12.641H6.58186V12.642C6.56791 12.6236 6.76854 12.9142 7.03635 13.2626C7.30415 13.6109 7.67865 14.0685 8.14912 14.5639C9.09006 15.5546 10.413 16.6995 12.055 17.3998C12.8112 17.7218 13.4077 17.9162 13.8597 18.0581C14.6973 18.3211 15.4602 18.2811 16.0333 18.1967C16.4622 18.1335 16.934 17.9275 17.4008 17.6321C17.8676 17.3367 18.3251 16.9694 18.5268 16.4113C18.6714 16.0113 18.7448 15.6415 18.7714 15.3373C18.7847 15.1852 18.7864 15.0509 18.7765 14.9266C18.7666 14.8023 18.7772 14.7071 18.6613 14.517C18.4184 14.1182 18.1433 14.1077 17.8563 13.9657C17.6968 13.8868 17.2428 13.665 16.7874 13.448C16.3325 13.2313 15.9386 13.0393 15.696 12.9528C15.5427 12.8976 15.3556 12.8183 15.0856 12.8488C14.8156 12.8794 14.5489 13.0742 14.3937 13.3043C14.2465 13.5225 13.6541 14.2217 13.4735 14.4273C13.4711 14.4258 13.4868 14.4331 13.4154 14.3978C13.192 14.2872 12.9189 14.1932 12.5146 13.98C12.1103 13.7667 11.6047 13.4518 11.0513 12.964V12.963C10.2277 12.2379 9.65075 11.3275 9.46875 11.0217C9.48101 11.0072 9.46729 11.0248 9.49321 10.9993L9.49423 10.9983C9.68023 10.8151 9.84508 10.5963 9.98438 10.4358C10.1819 10.2083 10.269 10.0077 10.3635 9.82031C10.5516 9.44684 10.4469 9.03586 10.338 8.81963V8.81861C10.3455 8.83357 10.2791 8.68704 10.2075 8.518C10.1358 8.34848 10.0443 8.12872 9.94667 7.89436C9.75132 7.42565 9.53323 6.89995 9.40353 6.59205V6.59103C9.25074 6.22836 9.04403 5.96708 8.77378 5.84103C8.50352 5.71498 8.26475 5.75082 8.2551 5.75034H8.25408C8.06122 5.74144 7.84959 5.73913 7.63961 5.73913ZM7.63961 6.78261C7.84076 6.78261 8.03907 6.78506 8.20516 6.7928C8.37603 6.80131 8.3654 6.80201 8.33254 6.78668C8.29915 6.77112 8.34445 6.76606 8.44158 6.9966C8.56857 7.29809 8.78774 7.8257 8.9837 8.29586C9.08167 8.53094 9.17337 8.75156 9.2466 8.92459C9.31984 9.09763 9.35952 9.19424 9.40557 9.28635V9.28736L9.40659 9.28838C9.45174 9.37747 9.44775 9.32043 9.43207 9.35156C9.32196 9.57008 9.30702 9.62374 9.19565 9.75204C9.02608 9.94739 8.85311 10.1653 8.76155 10.2554C8.68145 10.3341 8.53691 10.4567 8.44667 10.6967C8.35629 10.937 8.39847 11.2667 8.54348 11.5129C8.73654 11.8407 9.37273 12.8762 10.3614 13.7466C10.984 14.2955 11.5641 14.6587 12.0275 14.9032C12.4909 15.1476 12.8683 15.2904 12.9528 15.3322C13.1533 15.4315 13.3725 15.5085 13.6274 15.4779C13.8822 15.4473 14.102 15.2927 14.2418 15.1345L14.2429 15.1335C14.429 14.9224 14.9822 14.2908 15.2476 13.9015C15.2589 13.9055 15.2552 13.9024 15.3434 13.9341V13.9351H15.3444C15.3847 13.9495 15.8892 14.1753 16.339 14.3896C16.7888 14.6039 17.2453 14.8267 17.3937 14.9001C17.6078 15.0061 17.7089 15.0751 17.7351 15.0754C17.7368 15.1213 17.7386 15.1711 17.732 15.2466C17.7137 15.4562 17.6577 15.7462 17.5455 16.0567C17.4906 16.2087 17.2044 16.5223 16.8434 16.7507C16.4825 16.9791 16.0431 17.1404 15.8804 17.1644C15.3912 17.2365 14.8104 17.2628 14.1726 17.0625C13.7303 16.9237 13.1788 16.744 12.4647 16.4399C11.0164 15.8222 9.78553 14.7712 8.90625 13.8454C8.46661 13.3826 8.11438 12.9517 7.86379 12.6257C7.61367 12.3003 7.50445 12.131 7.41338 12.0112L7.41236 12.0102C7.25071 11.7964 6.26087 10.4196 6.26087 9.17935C6.26087 7.86678 6.87052 7.35205 7.20041 6.9966C7.37359 6.81 7.56293 6.78261 7.63961 6.78261Z"/></svg>